<svg xmlns="http://www.w3.org/2000/svg" viewBox="0 0 128 128" width="128" height="128">
  <g fill="#000000">
    <path d="M64 0C28.65 0 0 28.65 0 64c0 28.261 18.307 52.209 43.683 60.686 3.192.59 4.373-1.385 4.373-3.08 0-1.518-.057-5.537-.087-10.867-17.76 3.847-21.52-8.586-21.52-8.586-2.901-7.396-7.088-9.369-7.088-9.369-5.796-3.97.437-3.89.437-3.89 6.423.453 9.804 6.602 9.804 6.602 5.712 9.785 14.986 6.958 18.611 5.315.58-4.126 2.241-6.958 4.074-8.558-14.255-1.625-29.268-7.123-29.268-31.747 0-7.005 2.504-12.738 6.602-17.239-.627-1.622-2.848-8.156.618-16.984 0 0 5.383-1.725 17.585 6.576 5.102-1.422 10.556-2.133 16.006-2.156 5.45.023 10.904.734 16.012 2.156 12.192-8.301 17.566-6.576 17.566-6.576 3.473 8.828 1.246 15.362.62 16.984 4.107 4.501 6.592 10.234 6.592 17.239 0 24.674-15.03 30.107-29.346 31.707 2.307 1.984 4.357 5.89 4.357 11.86 0 8.554-.08 15.446-.08 17.544 0 1.71 1.16 3.694 4.404 3.072C109.705 116.184 128 92.246 128 64 128 28.65 99.35 0 64 0z"/>
  </g>
</svg>
