<?xml version="1.0" encoding="UTF-8"?>
<svg xmlns="http://www.w3.org/2000/svg" xmlns:xlink="http://www.w3.org/1999/xlink" viewBox="0 0 96 96" width="96px" height="96px">
  <g id="surface46677390">
    <rect x="12" y="12" width="72" height="72" rx="8" ry="8" style="stroke:none;fill-rule:nonzero;fill:#0088cc;fill-opacity:1;" />
    <path style="stroke:none;fill:#FFFFFF;fill-opacity:1;" d="M 69.84375 26.421875 L 26.421875 44.484375 C 25.078125 45.054688 25.085938 45.851562 26.171875 46.207031 L 35.878906 49.519531 L 39.78125 62.636719 C 40.242188 64.136719 40.984375 64.40625 42.015625 63.738281 L 47.398438 60.460938 L 52.398438 64.738281 C 53.285156 65.425781 54.023438 65.140625 54.25 64.019531 L 59.742188 37.777344 C 60.03125 36.492188 59.277344 35.972656 58.378906 36.3125 L 42.679688 42.304688 C 41.789062 42.644531 41.039062 42.324219 41.421875 41.726562 L 57.171875 29.207031 C 57.921875 28.601562 57.269531 28.367188 56.398438 28.675781 Z"/>
  </g>
</svg>
