<svg xmlns="http://www.w3.org/2000/svg" viewBox="0 0 512 512" width="512" height="512">
  <path fill="#FF0000" d="M480.107 116.776c-5.333-20.395-20.27-36.093-40.661-41.429C396.307 64 256.007 64 256.007 64s-140.307 0-183.429 11.347C52.163 80.682 37.227 96.38 32.007 116.776 12.595 163.3 0 211.937 0 256c0 44.045 12.595 92.682 32.007 139.204 5.22 20.382 20.156 36.093 40.571 41.429C115.68 464 256.007 464 256.007 464s140.307 0 183.429-11.349c20.39-5.333 35.328-21.041 40.661-41.429C499.406 348.682 512 300.045 512 256c0-44.063-12.594-92.7-31.893-139.224zm-320 215.224V180.776l128 79.224-128 79.224z"/>
</svg>
